<svg width="155" height="222" viewBox="0 0 155 222" fill="none" xmlns="http://www.w3.org/2000/svg">
<path d="M5.00097 72.8239C5.00097 112.979 37.6041 145.65 77.6804 145.65C117.757 145.65 150.362 112.979 150.362 72.8239C150.362 32.6683 117.757 0 77.6804 0C37.6041 0 5.00097 32.6683 5.00097 72.8239ZM14.8913 72.8239C14.8913 38.1332 43.059 9.9101 77.6804 9.9101C112.303 9.9101 140.47 38.1332 140.47 72.8239C140.47 107.515 112.303 135.738 77.6804 135.738C43.059 135.738 14.8913 107.515 14.8913 72.8239Z" fill="url(#paint0_linear_50_388)"/>
<path d="M20.9129 72.8239C20.9129 104.188 46.3795 129.704 77.6804 129.704C108.982 129.704 134.448 104.188 134.448 72.8239C134.448 41.4604 108.982 15.9446 77.6804 15.9446C46.3795 15.9446 20.9129 41.4604 20.9129 72.8239ZM79.9477 20.5458C88.8147 20.9276 97.114 23.5341 104.307 27.8234C102.81 27.5235 101.282 27.3716 99.73 27.3716C96.5894 27.3716 93.5389 27.9907 90.6627 29.2111C87.8878 30.3892 85.3943 32.0744 83.2528 34.221C81.9781 35.4974 80.8875 36.9145 79.9477 38.4265V20.5458ZM75.4124 20.5458V38.4265C74.4734 36.9145 73.3827 35.4982 72.108 34.221C69.9665 32.0744 67.473 30.3892 64.6982 29.2103C61.8228 27.9907 58.7723 27.3716 55.6309 27.3716C54.0797 27.3716 52.5511 27.5235 51.0543 27.8234C58.2468 23.5341 66.5454 20.9276 75.4124 20.5458ZM92.3768 68.1885C90.1258 67.233 88.1035 65.8656 86.3642 64.1227C84.6248 62.3807 83.2601 60.3536 82.3057 58.0981C81.318 55.7629 80.8177 53.2848 80.8177 50.7303C80.8177 48.1766 81.318 45.6984 82.3057 43.3641C83.2601 41.1078 84.6248 39.0806 86.3642 37.3386C88.1035 35.5958 90.1258 34.2275 92.3768 33.272C94.7081 32.2824 97.1814 31.7811 99.73 31.7811C102.279 31.7811 104.753 32.2824 107.083 33.272C109.334 34.2275 111.357 35.5958 113.097 37.3386C114.835 39.0806 116.2 41.1078 117.154 43.3633C117.702 44.6584 118.083 46.0023 118.33 47.3738C111.274 47.7183 105.633 53.5618 105.633 60.7159C105.633 63.3509 106.409 65.8046 107.728 67.8773C107.512 67.9789 107.304 68.0951 107.083 68.1885C104.753 69.1781 102.242 69.673 99.7307 69.673C97.2186 69.673 94.7073 69.1781 92.3768 68.1885ZM48.2778 68.1885C48.0564 68.0951 47.8488 67.9789 47.6323 67.8773C48.9516 65.8046 49.7268 63.3509 49.7268 60.7159C49.7268 53.5618 44.088 47.7183 37.0317 47.3738C37.2774 46.0023 37.6593 44.6584 38.2066 43.3641C39.161 41.1078 40.5258 39.0806 42.2643 37.3386C44.0028 35.5958 46.026 34.2283 48.2778 33.272C52.9396 31.2935 58.3214 31.2927 62.9832 33.272C65.2342 34.2275 67.2581 35.5958 68.9967 37.3386C70.736 39.0806 72.1007 41.1078 73.0543 43.3641C74.042 45.6984 74.5431 48.1766 74.5431 50.7303C74.5431 53.2848 74.042 55.7629 73.0543 58.0981C72.1007 60.3536 70.736 62.3807 68.9967 64.1227C67.2581 65.8656 65.2342 67.233 62.9832 68.1885C60.6527 69.1781 58.1414 69.673 55.6301 69.673C53.1188 69.673 50.6075 69.1781 48.2778 68.1885ZM111.163 64.958C111.026 64.7053 110.901 64.4461 110.788 64.1796C110.675 63.9123 110.575 63.6401 110.489 63.3623C110.401 63.0828 110.328 62.7992 110.269 62.5091C110.21 62.2199 110.165 61.9241 110.134 61.6267C110.104 61.3269 110.088 61.0239 110.088 60.7159C110.088 60.408 110.104 60.1033 110.134 59.8051C110.165 59.5061 110.21 59.2112 110.269 58.9211C110.328 58.6327 110.401 58.3475 110.488 58.0696C110.575 57.7917 110.675 57.5179 110.789 57.2498C110.901 56.9849 111.026 56.7249 111.163 56.4738C111.3 56.2203 111.449 55.975 111.608 55.7393C111.768 55.5021 111.939 55.2722 112.122 55.0503C112.303 54.8302 112.495 54.6189 112.697 54.4174C112.899 54.2159 113.11 54.0233 113.329 53.8413C113.55 53.6601 113.778 53.4879 114.015 53.327C114.251 53.167 114.496 53.0175 114.748 52.8802C115.001 52.7428 115.26 52.6169 115.525 52.5048C115.791 52.3918 116.064 52.2927 116.343 52.2049C116.619 52.1172 116.902 52.0441 117.193 51.9856C117.481 51.9263 117.775 51.8808 118.075 51.8499C118.243 51.8328 118.416 51.832 118.588 51.8239C118.465 53.99 117.999 56.0985 117.154 58.0981C116.2 60.3536 114.835 62.3807 113.097 64.1227C112.594 64.6273 112.06 65.0904 111.51 65.5308C111.39 65.3431 111.27 65.1546 111.163 64.958ZM42.2643 64.1227C40.5258 62.3807 39.161 60.3536 38.2066 58.0981C37.3617 56.0993 36.8962 53.99 36.773 51.8239C36.9449 51.832 37.1184 51.8328 37.2871 51.8499C37.5863 51.8808 37.879 51.9263 38.1701 51.9856C38.4588 52.0441 38.7418 52.1172 39.0191 52.2049C39.2965 52.2919 39.5697 52.3918 39.8349 52.5048C40.1 52.6169 40.3595 52.7428 40.6117 52.8802C40.8639 53.0175 41.1096 53.167 41.3447 53.3262C41.5823 53.4871 41.8118 53.6593 42.0308 53.8413C42.2513 54.0233 42.4621 54.2159 42.6641 54.4174C42.8652 54.6197 43.0581 54.831 43.239 55.0503C43.4206 55.2713 43.5925 55.5021 43.7522 55.7377C43.9128 55.975 44.0612 56.2203 44.1982 56.4738C44.3361 56.7257 44.461 56.9857 44.5729 57.2506C44.6856 57.5171 44.7853 57.7909 44.8721 58.0688C44.9589 58.3475 45.0326 58.6327 45.0918 58.9211C45.151 59.2112 45.1964 59.5061 45.2265 59.8035C45.2565 60.1033 45.2727 60.408 45.2727 60.7159C45.2727 61.0239 45.2565 61.3269 45.2265 61.6251C45.1964 61.9241 45.151 62.2199 45.0918 62.5091C45.0326 62.7992 44.9589 63.0828 44.8721 63.3623C44.7853 63.6409 44.6848 63.9139 44.5737 64.1796C44.461 64.4461 44.3361 64.7053 44.1982 64.958C44.0904 65.1546 43.972 65.3439 43.8504 65.5308C43.3014 65.0904 42.7678 64.6273 42.2643 64.1227ZM118.074 69.5803C117.775 69.5495 117.48 69.5048 117.193 69.4463C116.903 69.3861 116.619 69.313 116.342 69.2261C116.064 69.1392 115.791 69.0384 115.524 68.9255C115.264 68.8158 115.009 68.6923 114.762 68.5574C115.258 68.1373 115.744 67.7043 116.208 67.2403C118.349 65.0945 120.031 62.5961 121.207 59.8157C122.162 57.5553 122.743 55.1868 122.951 52.7518C123.039 52.7965 123.13 52.833 123.216 52.8793C123.469 53.0175 123.714 53.167 123.949 53.3262C124.186 53.4871 124.416 53.6593 124.636 53.8405C124.855 54.0233 125.067 54.2159 125.27 54.4174C125.47 54.6197 125.663 54.831 125.844 55.0512C126.025 55.2714 126.196 55.5013 126.356 55.7377C126.517 55.975 126.666 56.2204 126.802 56.4722C126.939 56.7249 127.066 56.9849 127.178 57.2514C127.291 57.5179 127.391 57.7917 127.477 58.0688C127.563 58.3475 127.636 58.6327 127.696 58.9211C127.756 59.2104 127.801 59.5053 127.831 59.8051C127.862 60.1041 127.877 60.4088 127.877 60.7159C127.877 61.0231 127.862 61.3261 127.831 61.6267C127.801 61.9257 127.756 62.2199 127.696 62.5091C127.636 62.7992 127.564 63.0828 127.478 63.3623C127.391 63.6401 127.29 63.9123 127.178 64.1796C127.066 64.4461 126.939 64.7061 126.803 64.958C126.666 65.2107 126.517 65.4553 126.356 65.6933C126.196 65.9306 126.025 66.1589 125.844 66.3791C125.663 66.5993 125.47 66.8113 125.27 67.0136C125.067 67.216 124.855 67.4077 124.636 67.5897C124.416 67.7717 124.186 67.9432 123.95 68.1032C123.714 68.2641 123.469 68.4136 123.216 68.5509C122.965 68.6882 122.706 68.8133 122.44 68.9263C122.174 69.0384 121.901 69.14 121.624 69.2261C121.346 69.313 121.062 69.387 120.775 69.4463C120.485 69.5048 120.191 69.5495 119.891 69.5803C119.593 69.6112 119.288 69.6267 118.983 69.6267C118.678 69.6267 118.373 69.6112 118.074 69.5803ZM35.4691 69.5803C35.1707 69.5495 34.8755 69.5048 34.5869 69.4463C34.299 69.387 34.0152 69.313 33.737 69.2261C33.4589 69.1392 33.1865 69.0384 32.9197 68.9255C32.6545 68.8133 32.3966 68.6882 32.1445 68.5509C31.8923 68.4136 31.6466 68.2641 31.4114 68.1048C31.1738 67.9431 30.9452 67.7717 30.7254 67.5905C30.5049 67.4077 30.294 67.216 30.0913 67.0136C29.8902 66.8113 29.698 66.5993 29.5164 66.3791C29.3347 66.1589 29.1645 65.9306 29.0039 65.6933C28.8442 65.4561 28.695 65.2115 28.5579 64.958C28.4201 64.7053 28.296 64.4461 28.1833 64.1796C28.0698 63.9123 27.97 63.6401 27.8841 63.3639C27.7981 63.0844 27.7243 62.8 27.6643 62.5091C27.6051 62.2199 27.5597 61.9258 27.5297 61.6251C27.4997 61.3261 27.4835 61.0231 27.4835 60.7159C27.4835 60.4088 27.4997 60.1041 27.5297 59.8035C27.5597 59.5053 27.6051 59.2104 27.6643 58.9211C27.7243 58.6319 27.7981 58.3467 27.8833 58.0696C27.9701 57.7917 28.0698 57.5179 28.1833 57.2514C28.296 56.9857 28.4201 56.7257 28.5587 56.4722C28.695 56.2195 28.8442 55.975 29.0039 55.7377C29.1645 55.5013 29.3347 55.2714 29.5164 55.0512C29.698 54.831 29.8902 54.6197 30.0913 54.4174C30.294 54.2159 30.5049 54.0233 30.7238 53.8413C30.9452 53.6593 31.1738 53.4871 31.4106 53.327C31.6466 53.167 31.8923 53.0175 32.1453 52.8793C32.2304 52.833 32.3229 52.7965 32.4104 52.7518C32.618 55.1868 33.1986 57.5561 34.1538 59.8165C35.3296 62.5961 37.0114 65.0945 39.1537 67.2403C39.6159 67.7043 40.1041 68.1365 40.5987 68.5566C40.3514 68.6923 40.0968 68.8158 39.8357 68.9263C39.5697 69.0384 39.2965 69.14 39.0191 69.2261C38.741 69.313 38.4572 69.387 38.1709 69.4463C37.8806 69.5048 37.5863 69.5495 37.2863 69.5803C36.9871 69.6112 36.6814 69.6267 36.3757 69.6267C36.0724 69.6267 35.7683 69.6112 35.4691 69.5803ZM79.9477 63.0348C80.8867 64.5469 81.9781 65.9631 83.2528 67.2403C84.5275 68.5184 85.9409 69.6104 87.4499 70.5521H79.9477V63.0348ZM72.108 67.2403C73.3827 65.9631 74.4734 64.5477 75.4124 63.0348V70.5521H67.9101C69.42 69.6104 70.8333 68.5184 72.108 67.2403ZM79.9477 75.0956H87.4532C85.9425 76.0365 84.5283 77.1301 83.2528 78.4082C81.9781 79.6854 80.8875 81.1016 79.9477 82.6137V75.0956ZM72.108 78.4082C70.8325 77.1301 69.4183 76.0365 67.9085 75.0956H75.4124V82.6137C74.4734 81.1016 73.3827 79.6854 72.108 78.4082ZM92.3777 112.377C90.1258 111.421 88.1035 110.054 86.3642 108.311C84.6248 106.568 83.2601 104.541 82.3057 102.285C81.318 99.9509 80.8177 97.4728 80.8177 94.9183C80.8177 92.3646 81.318 89.8864 82.3057 87.5513C83.2601 85.295 84.6248 83.2678 86.3642 81.5266C88.1035 79.7829 90.1258 78.4155 92.3777 77.46C94.7073 76.4704 97.1814 75.9699 99.73 75.9699C102.279 75.9699 104.753 76.4704 107.083 77.46C107.304 77.5534 107.512 77.6696 107.728 77.7712C106.409 79.8455 105.633 82.2976 105.633 84.9342C105.633 92.0875 111.274 97.9302 118.33 98.2755C118.083 99.6479 117.702 100.99 117.154 102.285C116.2 104.541 114.835 106.568 113.097 108.311C111.357 110.054 109.334 111.421 107.083 112.377C104.752 113.366 102.241 113.861 99.73 113.861C97.2195 113.862 94.7081 113.366 92.3777 112.377ZM48.2786 112.377C46.026 111.421 44.0028 110.054 42.2643 108.311C40.5258 106.568 39.161 104.541 38.2066 102.285C37.6593 100.991 37.2774 99.6479 37.0317 98.2755C44.088 97.9302 49.7268 92.0875 49.7268 84.9342C49.7268 82.2976 48.9516 79.8455 47.6323 77.7712C47.8488 77.6696 48.0572 77.5534 48.2786 77.46C50.6075 76.4704 53.0815 75.9699 55.6309 75.9699C58.1803 75.9699 60.6535 76.4704 62.9832 77.46C65.2342 78.4155 67.2581 79.7829 68.9967 81.5266C70.736 83.2678 72.1007 85.295 73.0543 87.5513C74.042 89.8864 74.5431 92.3646 74.5431 94.9183C74.5431 97.4728 74.042 99.9509 73.0543 102.285C72.1007 104.541 70.736 106.568 68.9967 108.311C67.2581 110.054 65.2342 111.421 62.9832 112.377C60.6527 113.366 58.1422 113.861 55.6317 113.861C53.1196 113.861 50.6091 113.366 48.2786 112.377ZM121.206 85.8328C120.031 83.0524 118.349 80.5548 116.208 78.4082C115.744 77.9442 115.258 77.512 114.762 77.0911C115.01 76.9571 115.265 76.8336 115.525 76.7231C115.791 76.6101 116.064 76.5102 116.343 76.4232C116.619 76.3363 116.902 76.2632 117.193 76.2039C117.481 76.1437 117.775 76.0983 118.075 76.0682C118.373 76.0373 118.676 76.0219 118.983 76.0219C119.288 76.0219 119.593 76.0373 119.893 76.0682C120.191 76.0983 120.485 76.1437 120.775 76.2039C121.063 76.2632 121.346 76.3363 121.624 76.4232C121.901 76.5094 122.174 76.6101 122.44 76.7231C122.705 76.8352 122.965 76.9603 123.216 77.0968C123.469 77.2357 123.714 77.3844 123.949 77.5437C124.186 77.7054 124.416 77.8776 124.636 78.0588C124.855 78.2408 125.067 78.4334 125.27 78.6349C125.47 78.8372 125.663 79.0492 125.844 79.2694C126.025 79.4896 126.196 79.7196 126.356 79.9552C126.517 80.1933 126.666 80.4378 126.802 80.6905C126.939 80.9424 127.066 81.2032 127.178 81.4697C127.291 81.7362 127.391 82.0092 127.477 82.2871C127.563 82.5658 127.636 82.8501 127.696 83.1394C127.756 83.4286 127.801 83.7228 127.831 84.0234C127.862 84.3224 127.877 84.6263 127.877 84.9342C127.877 85.2413 127.862 85.5444 127.831 85.8442C127.801 86.1432 127.756 86.4382 127.696 86.7274C127.636 87.0167 127.563 87.301 127.477 87.5805C127.391 87.8592 127.29 88.1314 127.178 88.3971C127.066 88.6644 126.939 88.9236 126.803 89.1755C126.666 89.4282 126.517 89.6735 126.356 89.9108C126.196 90.148 126.025 90.3772 125.844 90.5965C125.663 90.8176 125.47 91.0296 125.27 91.2319C125.067 91.4342 124.855 91.6268 124.636 91.8088C124.416 91.99 124.187 92.1614 123.95 92.3215C123.714 92.4824 123.469 92.6311 123.216 92.7692C123.131 92.8163 123.039 92.8537 122.951 92.8976C122.743 90.4625 122.162 88.0932 121.206 85.8328ZM32.1428 92.7684C31.8915 92.6311 31.6466 92.4824 31.4106 92.3215C31.173 92.1614 30.9452 91.99 30.7254 91.8088C30.5049 91.6268 30.294 91.4342 30.0913 91.2319C29.8902 91.0296 29.698 90.8176 29.5164 90.5965C29.3347 90.3772 29.1645 90.148 29.0039 89.9108C28.8442 89.6735 28.695 89.429 28.5579 89.1755C28.4201 88.9228 28.296 88.6636 28.1833 88.3979C28.0698 88.1314 27.9708 87.8592 27.8841 87.5822C27.7981 87.3027 27.7243 87.0175 27.6643 86.7274C27.6051 86.4382 27.5597 86.1432 27.5297 85.8434C27.4997 85.5444 27.4835 85.2413 27.4835 84.9342C27.4835 84.6263 27.4997 84.3224 27.5297 84.0218C27.5597 83.7228 27.6051 83.4286 27.6643 83.1394C27.7243 82.8501 27.7981 82.565 27.8833 82.2871C27.9701 82.0092 28.0698 81.7362 28.1833 81.4697C28.296 81.2032 28.4201 80.9432 28.5587 80.6905C28.695 80.4378 28.8442 80.1925 29.0039 79.9552C29.1645 79.7196 29.3347 79.4896 29.5164 79.2694C29.698 79.0492 29.8902 78.8372 30.0913 78.6349C30.294 78.4334 30.5049 78.2408 30.7238 78.0596C30.9452 77.8776 31.1738 77.7054 31.4106 77.5445C31.6466 77.3844 31.8923 77.2357 32.1453 77.0968C32.3966 76.9603 32.6553 76.8352 32.9205 76.7231C33.1864 76.6101 33.4589 76.5102 33.737 76.4232C34.0144 76.3363 34.2974 76.2632 34.5869 76.2039C34.8763 76.1437 35.1707 76.0983 35.4699 76.0682C35.7683 76.0373 36.0716 76.0219 36.3781 76.0219C36.6846 76.0219 36.9879 76.0373 37.2871 76.0682C37.5863 76.0983 37.879 76.1437 38.1701 76.2039C38.4588 76.2632 38.7418 76.3363 39.0191 76.4232C39.2965 76.5094 39.5697 76.6101 39.8349 76.7231C40.0968 76.8336 40.3514 76.9571 40.5987 77.0919C40.1041 77.512 39.6168 77.9442 39.1537 78.4082C37.0114 80.5548 35.3296 83.0525 34.153 85.8336C33.1986 88.0932 32.618 90.4617 32.4104 92.8967C32.322 92.8529 32.2296 92.8155 32.1428 92.7684ZM118.074 93.7986C117.775 93.7686 117.48 93.7231 117.193 93.6646C116.903 93.6044 116.619 93.5305 116.342 93.4444C116.064 93.3574 115.791 93.2575 115.524 93.1438C115.258 93.0308 115 92.9057 114.747 92.7684C114.495 92.6311 114.251 92.4824 114.014 92.3215C113.777 92.1606 113.55 91.99 113.33 91.8088C113.11 91.6268 112.899 91.4342 112.697 91.2319C112.495 91.0296 112.304 90.8184 112.121 90.5965C111.939 90.3764 111.768 90.1472 111.609 89.9108C111.449 89.6735 111.3 89.4282 111.163 89.1755C111.026 88.9236 110.901 88.6644 110.788 88.3979C110.675 88.1314 110.576 87.8592 110.489 87.5805C110.401 87.301 110.328 87.0167 110.269 86.7274C110.21 86.4373 110.165 86.1424 110.134 85.8442C110.104 85.5452 110.088 85.2413 110.088 84.9342C110.088 84.6263 110.104 84.3216 110.134 84.0234C110.165 83.7236 110.21 83.4286 110.269 83.1394C110.328 82.8501 110.401 82.5658 110.488 82.2871C110.575 82.0092 110.675 81.7362 110.789 81.4689C110.901 81.2024 111.026 80.9432 111.163 80.6913C111.27 80.4939 111.39 80.3054 111.51 80.1177C112.06 80.5589 112.593 81.022 113.097 81.5266C114.835 83.2678 116.2 85.295 117.154 87.5513C117.999 89.5501 118.465 91.6585 118.588 93.8246C118.416 93.8173 118.243 93.8157 118.074 93.7986ZM38.2066 87.5513C39.161 85.295 40.5258 83.2678 42.2643 81.5266C42.7678 81.022 43.3014 80.5589 43.8504 80.1177C43.972 80.3062 44.0912 80.4947 44.1982 80.6913C44.3361 80.9432 44.461 81.2032 44.5729 81.4689C44.6856 81.7354 44.7853 82.0092 44.8721 82.2871C44.9589 82.5658 45.0326 82.8501 45.0918 83.1394C45.151 83.4286 45.1964 83.7236 45.2265 84.0218C45.2565 84.3216 45.2727 84.6263 45.2727 84.9342C45.2727 85.2413 45.2565 85.5452 45.2265 85.8434C45.1964 86.1424 45.151 86.4373 45.0918 86.7274C45.0326 87.0167 44.9589 87.301 44.8721 87.5805C44.7853 87.8592 44.6848 88.1322 44.5737 88.3971C44.461 88.6636 44.3361 88.9228 44.1982 89.1755C44.0612 89.4282 43.9128 89.6735 43.7531 89.91C43.5925 90.148 43.4206 90.3772 43.2398 90.5965C43.0581 90.8176 42.8652 91.0296 42.6641 91.2319C42.4621 91.4342 42.2513 91.626 42.0308 91.8088C41.811 91.99 41.5823 92.1614 41.3464 92.3215C41.1096 92.4824 40.8647 92.6311 40.6117 92.7692C40.3603 92.9057 40.1017 93.0308 39.8357 93.1438C39.5697 93.2575 39.2965 93.3574 39.0191 93.4444C38.741 93.5305 38.4572 93.6044 38.1709 93.6637C37.8806 93.7231 37.5863 93.7686 37.2863 93.7986C37.1184 93.8157 36.9441 93.8173 36.773 93.8246C36.8962 91.6577 37.3617 89.5501 38.2066 87.5513ZM79.9477 107.223C80.8875 108.735 81.9781 110.15 83.2528 111.428C85.3943 113.574 87.8878 115.26 90.6627 116.438C93.5389 117.659 96.5894 118.278 99.73 118.278C101.281 118.278 102.809 118.126 104.306 117.826C97.114 122.114 88.8147 124.722 79.9477 125.104V107.223ZM64.699 116.438C67.473 115.26 69.9665 113.574 72.108 111.428C73.3827 110.15 74.4734 108.735 75.4124 107.223V125.104C66.5454 124.722 58.2476 122.114 51.0551 117.826C52.5512 118.126 54.0797 118.278 55.6309 118.278C58.7723 118.278 61.8228 117.659 64.699 116.438Z" fill="url(#paint1_linear_50_388)"/>
<path d="M17.371 169.017V164.246H38.2626V169.017H30.62V190.054H25.0127V169.017H17.371Z" fill="#1E1E1E"/>
<path d="M67.0811 188.083C65.1528 189.782 62.4859 190.631 59.0818 190.631C55.6298 190.631 52.958 189.789 51.0646 188.101C49.172 186.415 48.2257 183.813 48.2257 180.294V164.246H53.8321V180.294C53.8321 180.992 53.8913 181.68 54.0105 182.354C54.1289 183.029 54.3795 183.626 54.7606 184.143C55.1409 184.663 55.6712 185.083 56.3499 185.408C57.0286 185.733 57.9392 185.897 59.0818 185.897C61.0822 185.897 62.4623 185.445 63.2246 184.541C63.986 183.637 64.3671 182.222 64.3671 180.294V164.246H69.9735V180.294C69.9735 183.788 69.0094 186.384 67.0811 188.083Z" fill="#1E1E1E"/>
<path d="M87.5084 164.246L98.1505 181.56H98.2218V164.246H103.471V190.054H97.8642L87.2579 172.776H87.1873V190.054H81.9377V164.246H87.5084Z" fill="#1E1E1E"/>
<path d="M128.576 180.077L125.362 170.608H125.29L121.97 180.077H128.576ZM128.255 164.246L137.789 190.053H131.969L130.04 184.305H120.505L118.505 190.053H112.863L122.505 164.246H128.255Z" fill="#1E1E1E"/>
<path d="M2.42941 196V219.714H16.7155V221.81H0V196H2.42941Z" fill="#1E1E1E"/>
<path d="M35.5727 211.689L30.6442 198.459L25.5372 211.689H35.5727ZM32.1086 196L42.1093 221.81H39.5015L36.3942 213.785H24.7872L21.7156 221.81H19.1434L29.3938 196H32.1086Z" fill="#1E1E1E"/>
<path d="M56.7424 219.714C57.6473 219.714 58.5044 219.635 59.3145 219.479C60.123 219.322 60.8373 219.039 61.4569 218.629C62.0756 218.219 62.5645 217.671 62.9213 216.984C63.2789 216.297 63.4573 215.436 63.4573 214.4C63.4573 212.737 62.8791 211.49 61.7253 210.658C60.5697 209.827 58.9091 209.411 56.7424 209.411H48.3854V219.714H56.7424ZM56.7424 207.314C57.7187 207.314 58.5644 207.201 59.278 206.971C59.9932 206.742 60.5876 206.428 61.0644 206.031C61.5404 205.634 61.8972 205.17 62.1356 204.639C62.3732 204.11 62.4932 203.543 62.4932 202.94C62.4932 199.711 60.5762 198.097 56.7424 198.097H48.3854V207.314H56.7424ZM56.7424 196C57.8144 196 58.8434 196.102 59.8327 196.307C60.8195 196.512 61.6896 196.862 62.4388 197.355C63.1897 197.85 63.7906 198.501 64.243 199.308C64.6955 200.115 64.9218 201.121 64.9218 202.326C64.9218 203.001 64.8147 203.658 64.5998 204.296C64.3858 204.935 64.0817 205.513 63.6892 206.031C63.2967 206.55 62.8321 206.989 62.2969 207.351C61.7601 207.712 61.1593 207.965 60.4927 208.11V208.183C62.1356 208.399 63.4451 209.08 64.4214 210.224C65.3978 211.369 65.8859 212.785 65.8859 214.472C65.8859 214.883 65.8502 215.346 65.7789 215.864C65.7075 216.382 65.564 216.912 65.3499 217.454C65.1358 217.997 64.8261 218.533 64.4214 219.063C64.016 219.593 63.4751 220.057 62.7964 220.455C62.1177 220.852 61.2841 221.178 60.2965 221.43C59.308 221.684 58.1233 221.81 56.7424 221.81H45.9568V196H56.7424Z" fill="#1E1E1E"/>
<path d="M87.9931 196V198.097H72.8141V207.423H87.0289V209.52H72.8141V219.714H88.1723V221.81H70.3855V196H87.9931Z" fill="#1E1E1E"/>
<path d="M95.2894 196V219.714H109.576V221.81H92.8608V196H95.2894Z" fill="#1E1E1E"/>
<path d="M130.484 196V198.097H115.305V207.423H129.52V209.52H115.305V219.714H130.664V221.81H112.877V196H130.484Z" fill="#1E1E1E"/>
<path d="M146.393 208.255C147.13 208.255 147.833 208.14 148.5 207.911C149.167 207.683 149.75 207.351 150.25 206.917C150.75 206.483 151.148 205.959 151.446 205.344C151.744 204.73 151.893 204.025 151.893 203.229C151.893 201.639 151.441 200.386 150.535 199.47C149.63 198.555 148.25 198.097 146.393 198.097H137.321V208.255H146.393ZM146.572 196C147.619 196 148.613 196.133 149.553 196.398C150.494 196.663 151.315 197.066 152.018 197.608C152.72 198.15 153.279 198.851 153.697 199.705C154.114 200.561 154.321 201.568 154.321 202.724C154.321 204.363 153.905 205.785 153.071 206.989C152.238 208.194 151 208.965 149.357 209.303V209.375C150.191 209.495 150.881 209.719 151.429 210.044C151.976 210.369 152.423 210.785 152.768 211.291C153.112 211.796 153.363 212.381 153.518 213.044C153.673 213.707 153.774 214.424 153.822 215.195C153.844 215.629 153.87 216.159 153.893 216.785C153.917 217.412 153.965 218.045 154.036 218.683C154.107 219.322 154.22 219.925 154.376 220.491C154.53 221.057 154.738 221.498 155 221.81H152.322C152.179 221.57 152.065 221.273 151.983 220.925C151.898 220.575 151.84 220.214 151.804 219.84C151.768 219.467 151.739 219.099 151.714 218.737C151.691 218.376 151.666 218.063 151.644 217.797C151.595 216.882 151.518 215.972 151.41 215.068C151.304 214.165 151.077 213.357 150.732 212.646C150.387 211.936 149.887 211.363 149.232 210.929C148.577 210.495 147.679 210.303 146.536 210.351H137.321V221.81H134.892V196H146.572Z" fill="#1E1E1E"/>
<defs>
<linearGradient id="paint0_linear_50_388" x1="38.7573" y1="206.935" x2="164.497" y2="54.7471" gradientUnits="userSpaceOnUse">
<stop stop-color="#F86E91"/>
<stop offset="0.00102839" stop-color="#F86E91"/>
<stop offset="1" stop-color="#FA1371"/>
</linearGradient>
<linearGradient id="paint1_linear_50_388" x1="38.7583" y1="206.934" x2="164.499" y2="54.7475" gradientUnits="userSpaceOnUse">
<stop stop-color="#F86E91"/>
<stop offset="0.00102839" stop-color="#F86E91"/>
<stop offset="1" stop-color="#FA1371"/>
</linearGradient>
</defs>
</svg>
